<?xml version="1.0" encoding="UTF-8"?>
<svg width="167px" height="14px" viewBox="0 0 167 14" version="1.1" xmlns="http://www.w3.org/2000/svg" xmlns:xlink="http://www.w3.org/1999/xlink">
    <!-- Generator: Sketch 64 (93537) - https://sketch.com -->
    <title>EH-imagotype-monochrome-black</title>
    <desc>Created with Sketch.</desc>
    <g id="EH-Website-Homepage-v2-Desktop" stroke="none" stroke-width="1" fill="none" fill-rule="evenodd">
        <g id="00-Homepage-doctors-Desktop-v2" transform="translate(-171.000000, -4002.000000)" fill="#757F8A" fill-rule="nonzero">
            <g id="Footer/Desktop" transform="translate(0.000000, 3860.000000)">
                <g id="EH-imagotype-monochrome-black">
                    <g transform="translate(171.000000, 142.000000)">
                        <path d="M47.8943396,12.5219008 L47.8943396,0.545826446 L54.7003774,0.545826446 L54.7003774,3.06626033 L50.6986792,3.06626033 L50.6986792,5.26561983 L54.2907547,5.26561983 L54.2907547,7.56130165 L50.6986792,7.56130165 L50.6986792,10.0014669 L54.8264151,10.0014669 L54.8264151,12.5219008 L47.8943396,12.5219008 Z M58.7020755,0 L58.7020755,12.5219008 L56.1025472,12.5219008 L56.1025472,0 L58.7020755,0 Z M69.5413208,11.3499793 C68.5487736,12.2650413 67.1623585,12.971405 65.1772642,12.971405 C61.7427358,12.971405 59.6788679,10.8362603 59.6788679,7.91448347 C59.6788679,4.97665289 61.7427358,2.85756198 64.7046226,2.85756198 C67.4932075,2.85756198 69.6043396,4.99270661 69.6043396,7.93053719 L69.6043396,8.62084711 L62.4516981,8.62084711 C62.6722642,10.0656818 63.6175472,10.8362603 65.2087736,10.8362603 C66.5006604,10.8362603 67.3829245,10.3867562 68.0761321,9.76066116 L69.5413208,11.3499793 Z M64.6731132,5.02481405 C63.570283,5.02481405 62.8140566,5.69907025 62.5304717,6.8388843 L66.8157547,6.8388843 C66.5321698,5.69907025 65.7916981,5.02481405 64.6731132,5.02481405 Z M73.1176415,7.12785124 L73.1176415,12.5219008 L70.5023585,12.5219008 L70.5023585,3.30706612 L73.0073585,3.30706612 L73.0073585,4.65557851 C73.4169811,3.94921488 74.2992453,3.06626033 75.6699057,3.06626033 C76.8672642,3.06626033 77.8440566,3.70840909 78.3166981,4.8161157 C78.6790566,4.09369835 79.5613208,3.06626033 81.1210377,3.06626033 C82.9170755,3.06626033 84.1459434,4.36661157 84.1459434,6.48570248 L84.1459434,12.5219008 L81.5306604,12.5219008 L81.5306604,7.28838843 C81.5306604,5.9077686 80.9792453,5.41010331 80.1127358,5.41010331 C79.3565094,5.41010331 78.6317925,5.95592975 78.6317925,7.22417355 L78.6317925,12.5219008 L76.0165094,12.5219008 L76.0165094,7.28838843 C76.0165094,5.9077686 75.4335849,5.41010331 74.5828302,5.41010331 C73.7478302,5.41010331 73.1176415,6.05225207 73.1176415,7.12785124 Z M94.9221698,11.3499793 C93.9296226,12.2650413 92.5432075,12.971405 90.5581132,12.971405 C87.1235849,12.971405 85.059717,10.8362603 85.059717,7.91448347 C85.059717,4.97665289 87.1235849,2.85756198 90.0854717,2.85756198 C92.8740566,2.85756198 94.9851887,4.99270661 94.9851887,7.93053719 L94.9851887,8.62084711 L87.8325472,8.62084711 C88.0531132,10.0656818 88.9983962,10.8362603 90.5896226,10.8362603 C91.8815094,10.8362603 92.7637736,10.3867562 93.4569811,9.76066116 L94.9221698,11.3499793 Z M90.0539623,5.02481405 C88.9511321,5.02481405 88.1949057,5.69907025 87.9113208,6.8388843 L92.1966038,6.8388843 C91.9130189,5.69907025 91.1725472,5.02481405 90.0539623,5.02481405 Z M98.4827358,7.12785124 L98.4827358,12.5219008 L95.8832075,12.5219008 L95.8832075,3.30706612 L98.3566981,3.30706612 L98.3566981,4.43082645 C98.9081132,3.75657025 99.9321698,3.06626033 101.318585,3.06626033 C103.177642,3.06626033 104.564057,4.36661157 104.564057,6.48570248 L104.564057,12.5219008 L101.948774,12.5219008 L101.948774,7.28838843 C101.948774,5.92382231 101.192547,5.41010331 100.247264,5.41010331 C99.4280189,5.41010331 98.4827358,6.05225207 98.4827358,7.12785124 Z M110.078208,5.53853306 L109.022642,5.53853306 L109.022642,12.5219008 L106.423113,12.5219008 L106.423113,5.53853306 L105.367547,5.53853306 L105.367547,3.30706612 L106.423113,3.30706612 L106.423113,1.07559917 L109.022642,0.593987603 L109.022642,3.30706612 L110.078208,3.30706612 L110.078208,5.53853306 Z M113.701792,12.5219008 L113.701792,0.545826446 L116.506132,0.545826446 L116.506132,4.84822314 L120.413302,4.84822314 L120.413302,0.545826446 L123.217642,0.545826446 L123.217642,12.5219008 L120.413302,12.5219008 L120.413302,7.4328719 L116.506132,7.4328719 L116.506132,12.5219008 L113.701792,12.5219008 Z M130.764151,12.5219008 L130.764151,11.3981405 C130.212736,12.0723967 129.188679,12.7627066 127.802264,12.7627066 C125.943208,12.7627066 124.572547,11.4623554 124.572547,9.34326446 L124.572547,3.30706612 L127.172075,3.30706612 L127.172075,8.54057851 C127.172075,9.90514463 127.928302,10.4188636 128.873585,10.4188636 C129.708585,10.4188636 130.638113,9.77671488 130.638113,8.7011157 L130.638113,3.30706612 L133.237642,3.30706612 L133.237642,12.5219008 L130.764151,12.5219008 Z M137.113302,7.12785124 L137.113302,12.5219008 L134.498019,12.5219008 L134.498019,3.30706612 L137.003019,3.30706612 L137.003019,4.65557851 C137.412642,3.94921488 138.294906,3.06626033 139.665566,3.06626033 C140.862925,3.06626033 141.839717,3.70840909 142.312358,4.8161157 C142.674717,4.09369835 143.556981,3.06626033 145.116698,3.06626033 C146.912736,3.06626033 148.141604,4.36661157 148.141604,6.48570248 L148.141604,12.5219008 L145.526321,12.5219008 L145.526321,7.28838843 C145.526321,5.9077686 144.974906,5.41010331 144.108396,5.41010331 C143.35217,5.41010331 142.627453,5.95592975 142.627453,7.22417355 L142.627453,12.5219008 L140.01217,12.5219008 L140.01217,7.28838843 C140.01217,5.9077686 139.429245,5.41010331 138.578491,5.41010331 C137.743491,5.41010331 137.113302,6.05225207 137.113302,7.12785124 Z M154.585283,12.5219008 L154.585283,11.6710537 C154.018113,12.3292562 153.151604,12.8429752 151.954245,12.8429752 C150.189717,12.8429752 148.976604,11.5907851 148.976604,9.87303719 C148.976604,8.21950413 150.173962,6.88704545 152.174811,6.88704545 C153.10434,6.88704545 153.844811,7.14390496 154.380472,7.54524793 L154.380472,7.11179752 C154.380472,5.61880165 153.718774,5.21745868 152.458396,5.21745868 C151.891226,5.21745868 151.308302,5.31378099 150.221226,5.52247934 L150.173962,3.35522727 C151.276792,3.13047521 151.938491,3.06626033 152.931038,3.06626033 C155.640849,3.06626033 156.98,4.31845041 156.98,6.40543388 L156.98,12.5219008 L154.585283,12.5219008 Z M153.025566,11.3018182 C153.829057,11.3018182 154.396226,10.6436157 154.396226,9.80882231 C154.396226,9.05429752 153.860566,8.41214876 153.025566,8.41214876 C152.190566,8.41214876 151.654906,9.05429752 151.654906,9.80882231 C151.654906,10.627562 152.190566,11.3018182 153.025566,11.3018182 Z M160.839906,7.12785124 L160.839906,12.5219008 L158.240377,12.5219008 L158.240377,3.30706612 L160.713868,3.30706612 L160.713868,4.43082645 C161.265283,3.75657025 162.28934,3.06626033 163.675755,3.06626033 C165.534811,3.06626033 166.921226,4.36661157 166.921226,6.48570248 L166.921226,12.5219008 L164.305943,12.5219008 L164.305943,7.28838843 C164.305943,5.92382231 163.549717,5.41010331 162.604434,5.41010331 C161.785189,5.41010331 160.839906,6.05225207 160.839906,7.12785124 Z" id="ElementHuman"></path>
                        <g id="isotype">
                            <path d="M29.3180961,7.07877273 L29.3180961,7.09390909 C33.7995969,10.4743636 38.2827687,10.4743636 42.7676115,7.09390909 C43.118512,8.18877273 41.825193,10.8880909 40.3263465,12.1090909 C38.1539028,13.8916558 35.1153869,14.1443391 32.6817281,12.7448182 C30.6765823,11.5793182 29.0524142,8.86990909 29.3180961,7.07877273 Z M36.3711964,2.13162821e-14 C36.9206634,0.0694471522 37.4649273,0.175636514 38.0003774,0.317863636 C40.5491247,1.04194592 42.424136,3.22482859 42.7676115,5.86786364 C42.8049964,5.99698858 42.7372763,6.13330921 42.6122127,6.18068182 C40.9788873,7.21066192 39.134627,7.85413902 37.2183705,8.06263636 C35.5127247,8.25737046 33.7855344,8.03941939 32.1804417,7.42690909 C31.2981775,7.07877273 30.4610292,6.62468182 29.5988165,6.22609091 C29.393289,6.13527273 29.3431604,6.01418182 29.3732376,5.77704545 C29.8413187,2.88464657 32.0864083,0.612790338 34.9575686,0.126136364 L35.7646398,0.0100909091 L36.3711964,2.13162821e-14 Z" id="Combined-Shape"></path>
                            <path d="M12.9983576,9.46022727 C11.9517994,11.9967911 9.491198,13.6499852 6.7623542,13.6499852 C4.0335104,13.6499852 1.57290901,11.9967911 0.526350772,9.46022727 C4.34508664,7.07189256 9.17962177,7.07189256 12.9983576,9.46022727 Z M7.01801029,-4.97379915e-14 C7.51929674,0.0807272727 7.99551887,0.131181818 8.47174099,0.257318182 C12.0027989,1.17329633 14.1674548,4.75231716 13.354271,8.33004545 C13.354271,8.40572727 13.3091552,8.47636364 13.279078,8.58231818 C9.48629456,5.36543889 3.93619833,5.38893716 0.170437393,8.63781818 C0.0796780286,8.01746777 0.0227801701,7.39257536 -5.86197757e-14,6.76595455 C0.0104366321,3.65695126 2.1336768,0.959063577 5.13818611,0.237136364 C5.57430532,0.121090909 6.02546312,0.0756818182 6.4665952,-4.97379915e-14 L7.01801029,-4.97379915e-14 Z" id="Combined-Shape"></path>
                            <path d="M28.1336278,7.26040909 C27.9165061,10.8382887 24.9702637,13.6280882 21.4088701,13.6280882 C17.8474764,13.6280882 14.9012341,10.8382887 14.6841123,7.26040909 C19.1561851,7.70944424 23.661555,7.70944424 28.1336278,7.26040909 Z M21.4088701,0.0597679085 C24.9621373,0.0597679085 27.9017209,2.84307204 28.1185892,6.41277273 C23.6559505,5.97636013 19.1617897,5.97636013 14.6991509,6.41277273 C14.9160192,2.84307204 17.8556028,0.0597679085 21.4088701,0.0597679085 Z" id="Combined-Shape"></path>
                        </g>
                    </g>
                </g>
            </g>
        </g>
    </g>
</svg>