<?xml version="1.0" encoding="UTF-8"?>
<svg width="76px" height="83px" viewBox="0 0 76 83" version="1.1" xmlns="http://www.w3.org/2000/svg" xmlns:xlink="http://www.w3.org/1999/xlink">
    <!-- Generator: Sketch 58 (84663) - https://sketch.com -->
    <title>engage</title>
    <desc>Created with Sketch.</desc>
    <g id="Page-1" stroke="none" stroke-width="1" fill="none" fill-rule="evenodd">
        <g id="engage">
            <path d="M1.25999947,82.7828951 C1.38599942,82.7828951 74.3399689,82.857135 74.8187687,82.696282 C75.2935291,82.5047589 75.6025389,82.0495833 75.6000155,81.5455649 C75.5243684,79.0709045 73.6973692,78.0439204 71.3537701,76.9550698 C70.0055707,76.3364047 66.3137723,74.344303 65.0537728,73.6637714 C59.0687753,70.2982332 58.5773755,71.7459095 54.847777,69.6919414 C53.7216652,69.0647798 52.6548295,68.3401264 51.6599784,67.5266135 L51.6599784,63.8146228 C55.6793767,59.7190598 55.5659767,56.2050419 55.4399768,51.379454 C57.8669753,49.9831301 59.6198001,47.6865917 60.3035748,45.0072034 C60.9713745,41.0724933 60.7571746,36.3458918 56.7377763,37.1130365 C56.7377763,35.9499461 56.7377763,36.1231724 56.7377763,34.5765096 C56.7377763,32.6215278 54.7343771,31.0501184 50.7905787,29.9241479 C50.1225353,29.7328076 49.4230255,30.1095083 49.2281794,30.7655325 C49.0333335,31.4215568 49.4169358,32.1084816 50.084979,32.299822 C53.4239776,33.2154463 54.1799773,34.2424304 54.1799773,34.5270164 C54.1799773,35.6406136 48.6107797,38.239007 37.7999842,38.239007 C26.9891887,38.239007 21.419991,35.6406136 21.419991,34.5270164 C21.419991,33.9825911 23.5493901,32.1884622 30.4037873,31.2852112 C31.0996657,31.1963746 31.590451,30.5703866 31.4999868,29.887028 C31.4095226,29.2036695 30.7720658,28.7217141 30.0761874,28.8105507 C25.8929892,29.3797226 18.8999921,30.8150257 18.8999921,34.5270164 L18.8999921,37.0635433 C14.8679938,36.3335185 14.6663939,41.06012 15.3467936,45.0072034 C16.03449,47.6685457 17.7824625,49.9468411 20.1977915,51.3299608 C19.9961916,56.2792817 19.9205917,59.7066864 23.91479,63.7651296 L23.91479,67.4771203 C22.9073375,68.2785592 21.8324864,68.9946523 20.7017913,69.6177016 C16.9217929,71.6592964 16.5311931,70.1745002 10.5209956,73.5771583 C9.26099612,74.2329433 5.59439766,76.2374183 4.22099823,76.8684567 C1.9025992,78.0068005 0.0755999684,78.9966647 -7.10542736e-15,81.5455649 C-7.10542736e-15,82.2289235 0.564120979,82.7828951 1.25999947,82.7828951 Z M63.8693733,75.7796061 C70.9379703,79.664823 71.4293701,79.4915967 72.4247697,80.3082347 L56.1077765,80.3082347 C56.6400779,77.945774 56.8393408,75.5226986 56.6999763,73.1069728 C59.2272447,73.549263 61.6467947,74.4560123 63.8315733,75.7796061 L63.8693733,75.7796061 Z M57.5693759,39.4763373 C57.9851757,39.9217761 58.1237757,42.4211832 57.7583758,44.5370179 C57.3653805,45.9735271 56.5502712,47.2645664 55.4147768,48.2490086 C55.6541767,45.8609612 56.2841764,44.0792057 56.5613763,39.71143 C56.8558963,39.5126571 57.2152941,39.4288358 57.5693759,39.4763373 L57.5693759,39.4763373 Z M17.8541925,44.5988844 C17.5265927,42.4088099 17.6021926,39.9217761 17.9297925,39.5382038 C18.307555,39.4365488 18.711604,39.4996729 19.038592,39.71143 C19.3157919,44.0668324 19.9457917,45.8980811 20.1851916,48.2366353 C19.0672705,47.2701246 18.2577652,46.0068128 17.8541925,44.5988844 L17.8541925,44.5988844 Z M22.6799905,52.2332119 C22.9823904,45.5268821 21.6971909,45.4897622 21.419991,37.8554347 C28.2743882,41.6664118 47.2121802,41.6664118 54.0791774,37.8554347 C53.8145775,45.3536558 52.529378,45.5763753 52.8191779,52.2332119 C52.9829778,55.9452026 53.1215778,58.9147951 49.3793793,62.4659329 C47.7235086,64.0810384 46.2800824,65.8933878 45.0827811,67.8606926 C42.2477823,72.2037217 42.2729823,71.5726833 35.2295853,71.5726833 C31.147187,71.5726833 31.121987,67.1925343 26.0945891,62.4411862 C22.4153906,58.9147951 22.5539906,55.9699492 22.6799905,52.2332119 L22.6799905,52.2332119 Z M23.93999,70.619939 L23.93999,72.8842533 C23.93999,73.5676119 24.504111,74.1215836 25.1999895,74.1215836 C25.8958679,74.1215836 26.4599889,73.5676119 26.4599889,72.8842533 L26.4599889,66.524376 C29.4335877,70.4095929 30.3911873,74.1215836 35.2799852,74.1215836 C42.5627822,74.1215836 43.6337817,74.7897419 47.2625802,69.1722627 C47.80438,68.3432514 48.4091797,67.4400004 49.1273794,66.5120027 L49.1273794,72.8842533 C49.1273794,73.5676119 49.6915005,74.1215836 50.3873789,74.1215836 C51.0832573,74.1215836 51.6473784,73.5676119 51.6473784,72.8842533 L51.6473784,70.619939 C52.4090498,71.1405507 53.2045436,71.6117396 54.0287774,72.0304955 C54.324967,74.7993891 54.1460851,77.597459 53.4995776,80.3082347 L22.1003908,80.3082347 C21.4496678,77.5981574 21.2665264,74.8000802 21.558591,72.0304955 C22.3839522,71.6137213 23.1795777,71.1424544 23.93999,70.619939 L23.93999,70.619939 Z M11.7809951,75.7796061 C13.958398,74.4504218 16.3749533,73.5431919 18.8999921,73.1069728 C18.7606276,75.5226986 18.9598905,77.945774 19.4921918,80.3082347 L3.21299866,80.3082347 C4.23359823,79.5287167 4.72499802,79.6400764 11.7809951,75.7796061 Z" id="Shape" fill="#007AFF" fill-rule="nonzero"></path>
            <g id="v2" transform="translate(10.800000, 0.000000)">
                <g id="hearts" fill="#007AFF" fill-rule="nonzero">
                    <path d="M24.9923661,0.461368906 C23.4137398,0.552076501 21.9149327,1.18264394 20.7799628,2.24781389 L20.6982,2.322 L20.6192999,2.24759752 C18.0649189,-0.148565451 13.9570252,-0.148565423 11.4026444,2.24759757 C8.79911857,4.68986147 8.79911854,8.68750004 11.4026443,11.129764 L19.7761326,18.9846 C20.2955023,19.4718 21.103991,19.4718 21.6233607,18.9846 L29.996849,11.129764 C31.2438498,9.96055125 31.95,8.36187929 31.95,6.68868076 C31.95,5.01548223 31.2438498,3.41681026 29.9966183,2.24738121 C28.7675289,1.09387978 27.1109748,0.45 25.3885212,0.45 L24.9923661,0.461368906 Z M25.3885212,3.15 C26.4303381,3.15 27.4247655,3.53652025 28.1493903,4.21658111 C28.8577132,4.88071899 29.25,5.76882727 29.25,6.68868076 C29.25,7.60853424 28.8577132,8.49664252 28.1498516,9.16034773 L20.6982,16.1496 L13.2498724,9.16056404 C11.7833759,7.78490198 11.7833759,5.59245957 13.2498724,4.21679753 C14.7655139,2.79503458 17.2564303,2.79503457 18.7720718,4.21679749 L19.7761326,5.15866695 C20.2955023,5.64586698 21.103991,5.64586698 21.6233607,5.15866695 L22.6274215,4.21679748 C23.3522769,3.53652025 24.3467044,3.15 25.3885212,3.15 Z" id="Path"></path>
                    <path d="M9.43102144,18.9137645 C8.67413793,18.9777472 7.95414393,19.2630288 7.36825181,19.7326397 L7.2,19.8792 L7.27392213,19.9449334 C5.81605493,18.5520409 3.4686419,18.552041 2.01077473,19.9449334 C0.529741772,21.3599592 0.529741754,23.6719083 2.01077469,25.0869341 L6.57813196,29.4507319 C6.92599303,29.7830894 7.47373059,29.7830894 7.82159166,29.4507319 L12.3889489,25.0869341 C13.0986663,24.4091659 13.5,23.4837503 13.5,22.5159338 C13.5,21.5481172 13.0986663,20.6227016 12.3887963,19.9447876 C11.6876243,19.274551 10.7415116,18.9 9.75737521,18.9 L9.43102144,18.9137645 Z M9.75737521,20.7 C10.2810226,20.7 10.7808999,20.8978935 11.1453367,21.2462514 C11.5021862,21.5870369 11.7,22.0431659 11.7,22.5159338 C11.7,22.9887016 11.5021862,23.4448306 11.1456418,23.7853246 L7.2,27.5544 L3.25423441,23.7854703 C2.51525519,23.0794262 2.51525519,21.9524414 3.25423444,21.2463972 C4.01637947,20.5182197 5.26831739,20.5182197 6.03046243,21.2463972 L6.57813196,21.769658 C6.92599303,22.1020155 7.47373059,22.1020155 7.82159166,21.769658 L8.3692612,21.2463972 C8.73385051,20.8978935 9.23372777,20.7 9.75737521,20.7 Z" id="Path"></path>
                    <path d="M59.8310214,2.71376448 C59.0741379,2.7777472 58.3541439,3.06302879 57.7682518,3.53263969 L57.6,3.6792 L57.6739221,3.74493339 C56.2160549,2.35204094 53.8686419,2.35204095 52.4107747,3.74493342 C50.9297418,5.15995921 50.9297418,7.47190829 52.4107747,8.88693411 L56.978132,13.2507319 C57.325993,13.5830894 57.8737306,13.5830894 58.2215917,13.2507319 L62.7889489,8.88693412 C63.4986663,8.20916593 63.9,7.28375033 63.9,6.31593375 C63.9,5.34811717 63.4986663,4.42270158 62.7887963,3.74478763 C62.0876243,3.07455099 61.1415116,2.7 60.1573752,2.7 L59.8310214,2.71376448 Z M60.1573752,4.5 C60.6810226,4.5 61.1808999,4.69789347 61.5453367,5.04625137 C61.9021862,5.3870369 62.1,5.84316588 62.1,6.31593375 C62.1,6.78870162 61.9021862,7.24483061 61.5456418,7.58532459 L57.6,11.3544 L53.6542344,7.58547034 C52.9152552,6.87942617 52.9152552,5.75244137 53.6542344,5.04639719 C54.4163795,4.31821969 55.6683174,4.31821968 56.4304624,5.04639717 L56.978132,5.56965798 C57.325993,5.90201547 57.8737306,5.90201547 58.2215917,5.56965798 L58.7692612,5.04639716 C59.1338505,4.69789347 59.6337278,4.5 60.1573752,4.5 Z" id="Path"></path>
                    <path d="M59.8310214,18.9137645 C59.0741379,18.9777472 58.3541439,19.2630288 57.7682518,19.7326397 L57.6,19.8792 L57.6739221,19.9449334 C56.2160549,18.5520409 53.8686419,18.552041 52.4107747,19.9449334 C50.9297418,21.3599592 50.9297418,23.6719083 52.4107747,25.0869341 L56.978132,29.4507319 C57.325993,29.7830894 57.8737306,29.7830894 58.2215917,29.4507319 L62.7889489,25.0869341 C63.4986663,24.4091659 63.9,23.4837503 63.9,22.5159338 C63.9,21.5481172 63.4986663,20.6227016 62.7887963,19.9447876 C62.0876243,19.274551 61.1415116,18.9 60.1573752,18.9 L59.8310214,18.9137645 Z M60.1573752,20.7 C60.6810226,20.7 61.1808999,20.8978935 61.5453367,21.2462514 C61.9021862,21.5870369 62.1,22.0431659 62.1,22.5159338 C62.1,22.9887016 61.9021862,23.4448306 61.5456418,23.7853246 L57.6,27.5544 L53.6542344,23.7854703 C52.9152552,23.0794262 52.9152552,21.9524414 53.6542344,21.2463972 C54.4163795,20.5182197 55.6683174,20.5182197 56.4304624,21.2463972 L56.978132,21.769658 C57.325993,22.1020155 57.8737306,22.1020155 58.2215917,21.769658 L58.7692612,21.2463972 C59.1338505,20.8978935 59.6337278,20.7 60.1573752,20.7 Z" id="Path"></path>
                </g>
                <path d="M36.699979,2.24992218 L37.4743693,2.2519734 C44.0540038,2.61509465 49.337178,7.76012409 49.9178158,14.3486097 L49.9501985,14.8000222 L49.9501985,15.4965872 C49.9553144,17.5570533 49.4738909,19.589589 48.5475433,21.4235419 C46.3043357,25.9118995 41.718203,28.7480605 36.7034988,28.7499976 C35.0551468,28.7542953 33.4246299,28.4470596 31.896712,27.8483662 L31.2894,27.5922 L23.8269075,30.0807225 C22.830166,30.4129696 21.8792057,29.535842 22.0729761,28.5482892 L22.1192775,28.3730925 L24.606,20.9088 L24.5897667,20.8712823 C23.9185225,19.3703386 23.5362266,17.7562004 23.4629547,16.1136316 L23.4500024,15.4965012 C23.4519463,14.7509194 24.0579357,14.1480817 24.8035176,14.1500256 C25.5490995,14.1519696 26.1519371,14.757959 26.1499932,15.5035409 C26.1457298,17.138725 26.5277724,18.7517935 27.2650031,20.2113606 C27.3948302,20.4683919 27.4382401,20.758386 27.3921322,21.0389385 L27.3407182,21.2469201 L25.533,26.6652 L30.9530799,24.8592818 C31.2262614,24.7682212 31.5194856,24.7674535 31.790348,24.8538782 L31.9886394,24.9349969 C33.4482065,25.6722276 35.061275,26.0542702 36.6994566,26.0500023 C40.6946817,26.0484564 44.3462804,23.7902308 46.1349548,20.2113606 C46.7902545,18.9140003 47.1649518,17.4953073 47.2372033,16.0451355 L47.2500778,15.500021 L47.252129,14.8744137 C46.9643669,9.66026104 42.9029543,5.46920659 37.8147323,4.98131316 L37.3999778,4.94992218 L36.6965451,4.94991781 C35.0612617,4.94575835 33.4481698,5.32783303 31.9886394,6.06504523 C31.3231322,6.40119447 30.5111293,6.1341971 30.17498,5.46868992 C29.8388308,4.80318274 30.1058282,3.99117978 30.7713353,3.65503054 C32.4265034,2.81900128 34.2383741,2.34544529 36.0837731,2.26291185 L36.699979,2.24992218 Z" id="Path" fill="#007AFF" fill-rule="nonzero"></path>
                <path d="M37.6326201,12.7799755 L37.6326201,10.6199895 C37.6326201,9.725294 36.9739759,9 36.1614972,9 L34.2,13.8599685 L34.2,19.8001353 L39.7314221,19.8001353 C40.2204658,19.8060181 40.6388406,19.4144136 40.7121707,18.8819359 L41.3888872,14.0219674 C41.4320676,13.7086913 41.3481357,13.3903383 41.1593226,13.1512308 C40.9705096,12.9121234 40.6958665,12.7763874 40.4081386,12.7799755 L37.6326201,12.7799755 Z M34.2,19.8 L32.04,19.8 C31.24471,19.8 30.6,19.360425 30.6,18.8181818 L30.6,15.3818182 C30.6,14.839575 31.24471,14.4 32.04,14.4 L34.2,14.4" id="Shape" stroke="#007AFF" stroke-width="1.8" stroke-linecap="round" stroke-linejoin="round"></path>
            </g>
        </g>
    </g>
</svg>