<?xml version="1.0" encoding="UTF-8"?>
<svg width="63px" height="71px" viewBox="0 0 63 71" version="1.1" xmlns="http://www.w3.org/2000/svg" xmlns:xlink="http://www.w3.org/1999/xlink">
    <!-- Generator: Sketch 58 (84663) - https://sketch.com -->
    <title>remember</title>
    <desc>Created with Sketch.</desc>
    <g id="Page-1" stroke="none" stroke-width="1" fill="none" fill-rule="evenodd">
        <g id="remember" fill="#F9BE00" fill-rule="nonzero">
            <path d="M38.5,13 C37.672,13 37,13.672 37,14.5 C37,15.328 37.672,16 38.5,16 C39.328,16 40,15.328 40,14.5 C40,13.672 39.328,13 38.5,13 Z" id="Path"></path>
            <path d="M25.5,13 C24.672,13 24,13.672 24,14.5 C24,15.328 24.672,16 25.5,16 C26.328,16 27,15.328 27,14.5 C27,13.672 26.328,13 25.5,13 Z" id="Path"></path>
            <path d="M61.2364109,41.4465273 C62.4119087,39.6601562 63,37.4312832 63,35.5 C63,32.5884453 61.7226065,29.883373 59.5306174,28.0490215 C60.0157174,26.8753027 60.2608696,25.6545742 60.2608696,24.40625 C60.2608696,20.5435449 58.0345043,16.9452871 54.7244022,15.265 C55.2266217,11.0474336 52.5124174,7.18153906 48.4901413,6.19544336 C46.9158261,2.51051563 43.4117935,0 39.7173913,0 C36.278413,0 33.1940152,2.03098828 31.5,4.99440625 C29.8058478,2.03098828 26.72145,0 23.2826087,0 C19.5879326,0 16.0839,2.51051563 14.5098587,6.19558203 C10.4634783,7.18791797 7.77474783,11.0730879 8.27559783,15.265 C4.96563261,16.9451484 2.73913043,20.5435449 2.73913043,24.40625 C2.73913043,25.6545742 2.98428261,26.8753027 3.46938261,28.0490215 C1.27739348,29.8835117 -1.42108547e-14,32.5884453 -1.42108547e-14,35.5 C-1.42108547e-14,37.4414062 0.593021739,39.6673672 1.76358913,41.4463887 C0.619728261,43.0813301 -1.42108547e-14,45.0189922 -1.42108547e-14,47.0097656 C-1.42108547e-14,49.5912812 1.03374783,52.0504883 2.86225435,53.8765195 C1.92218478,59.630293 6.45407609,65.453125 12.326087,65.453125 C12.3685435,65.453125 12.4103152,65.4524316 12.4512652,65.4511836 C14.3981022,68.8516953 18.011837,71 21.9130435,71 C25.9790087,71 29.6121913,68.5288672 31.5,64.9686055 C33.3878087,68.5288672 37.0209913,71 41.0869565,71 C44.988163,71 48.6018978,68.8516953 50.5487348,65.4511836 C50.5898217,65.4524316 50.6314565,65.453125 50.673913,65.453125 C55.8705913,65.453125 60.2608696,60.8173242 60.2608696,55.3300781 C60.2608696,54.8628926 60.2203304,54.3823945 60.1377457,53.8765195 C61.9662522,52.0504883 63,49.5914199 63,47.0097656 C63,45.0189922 62.3802717,43.0813301 61.2364109,41.4465273 Z M30.375,21.5752945 C29.58012,21.1023671 28.658205,20.8301049 27.675,20.8301049 C26.929395,20.8301049 26.325,21.4501038 26.325,22.2149583 C26.325,22.9798128 26.929395,23.5998117 27.675,23.5998117 C29.16378,23.5998117 30.375,24.8423021 30.375,26.3695184 L30.375,52.7051366 C28.394415,50.4006021 25.498395,48.9426285 22.275,48.9426285 C21.529395,48.9426285 20.925,49.5626273 20.925,50.3274818 C20.925,51.0923364 21.529395,51.7123352 22.275,51.7123352 C26.74134,51.7123352 30.375,55.4398066 30.375,60.0214555 C30.375,64.7505913 26.665605,68.7460317 22.275,68.7460317 C19.14948,68.7460317 16.272225,66.850029 14.944635,63.9156632 C14.69988,63.3748779 14.14557,63.0559462 13.567635,63.1226961 C13.47219,63.1339134 13.377285,63.1469311 13.28238,63.1602257 C9.44028,63.6992106 5.11353,59.2362436 6.28479,54.2435702 C6.405075,53.730759 6.230925,53.192605 5.83578,52.8552547 C4.27194,51.5203945 3.375,49.5894935 3.375,47.5577751 C3.375,46.3015746 3.721275,45.0722402 4.36563,43.9942704 C5.98482,45.3555812 7.998885,46.1729217 10.125,46.1729217 C10.870605,46.1729217 11.475,45.5529229 11.475,44.7880683 C11.475,44.0232138 10.870605,43.403215 10.125,43.403215 C6.461235,43.403215 3.375,39.9729331 3.375,36.0634921 C3.375,33.6919307 4.553415,31.5102326 6.52752,30.227443 C7.135695,29.8322058 7.33455,29.0169426 6.979365,28.3745091 C6.37929,27.2889226 6.075,26.1483573 6.075,24.9846651 C6.075,21.2469458 9.04527,17.6449422 12.825,17.6449422 C16.42086,17.6449422 19.575,21.0748085 19.575,24.9846651 C19.575,25.7495196 20.179395,26.3695184 20.925,26.3695184 C21.670605,26.3695184 22.275,25.7495196 22.275,24.9846651 C22.275,19.5048002 17.94744,14.8752354 12.825,14.8752354 C12.37302,14.8752354 11.92347,14.9127649 11.478375,14.9838079 C11.4777,14.9473863 11.475,14.911934 11.475,14.8752354 C11.475,11.7846581 13.920795,9.3358219 16.875,9.3358219 C18.31707,9.3358219 19.67355,9.91205939 20.69442,10.9581776 C21.221865,11.4986859 22.07655,11.498132 22.60359,10.9572082 C23.130495,10.4160075 23.13009,9.53925686 22.602645,8.99874859 C21.37104,7.73673171 19.813275,6.93185492 18.1251,6.66513216 C19.315665,4.85222061 21.29544,3.38095238 23.625,3.38095238 C27.22086,3.38095238 30.375,6.81068025 30.375,10.7206753 L30.375,21.5752945 Z M52.875,46.1729217 C55.00125,46.1729217 57.015315,45.3554428 58.634505,43.9946858 C59.278725,45.0725172 59.625,46.3017131 59.625,47.5577751 C59.625,49.5894935 58.72806,51.5203945 57.164355,52.8552547 C56.769075,53.192605 56.59506,53.7308975 56.715345,54.2435702 C56.858445,54.8533212 56.925,55.369179 56.925,55.8667569 C56.925,60.1653417 53.134875,63.6393849 49.717755,63.1602257 C49.62285,63.1469311 49.52781,63.133775 49.432365,63.1226961 C48.85362,63.0555307 48.299985,63.3748779 48.0555,63.9156632 C46.72791,66.850029 43.850385,68.7460317 40.725,68.7460317 C36.334395,68.7460317 32.625,64.7505913 32.625,60.0214555 C32.625,55.4398066 36.25866,51.7123352 40.725,51.7123352 C41.47047,51.7123352 42.075,51.0923364 42.075,50.3274818 C42.075,49.5626273 41.47047,48.9426285 40.725,48.9426285 C37.501605,48.9426285 34.605585,50.4006021 32.625,52.7051366 L32.625,26.3695184 C32.625,24.8423021 33.83622,23.5998117 35.325,23.5998117 C36.07047,23.5998117 36.675,22.9798128 36.675,22.2149583 C36.675,21.4501038 36.07047,20.8301049 35.325,20.8301049 C34.341795,20.8301049 33.41988,21.1023671 32.625,21.5752945 L32.625,10.7206753 C32.625,6.81068025 35.77914,3.38095238 39.375,3.38095238 C41.70456,3.38095238 43.6842,4.85222061 44.874765,6.66499368 C43.186725,6.93171644 41.629095,7.73659322 40.397355,8.9986101 C39.869775,9.53911838 39.869235,10.415869 40.39614,10.9570697 C40.923045,11.4982704 41.778,11.4986859 42.30531,10.9581776 C43.326585,9.91205939 44.68293,9.3358219 46.125,9.3358219 C49.094055,9.3358219 51.525,11.7990606 51.525,14.8752354 C51.525,14.9117955 51.5223,14.9473863 51.521625,14.9838079 C51.07653,14.9127649 50.62698,14.8752354 50.175,14.8752354 C45.05256,14.8752354 40.725,19.5048002 40.725,24.9846651 C40.725,25.7495196 41.32953,26.3695184 42.075,26.3695184 C42.82047,26.3695184 43.425,25.7495196 43.425,24.9846651 C43.425,21.0748085 46.57914,17.6449422 50.175,17.6449422 C53.95257,17.6449422 56.925,21.2451455 56.925,24.9846651 C56.925,26.1483573 56.62071,27.2889226 56.020635,28.3745091 C55.665585,29.0169426 55.86444,29.8322058 56.472615,30.227443 C58.446585,31.5102326 59.625,33.6919307 59.625,36.0634921 C59.625,39.9869202 56.527965,43.403215 52.875,43.403215 C52.12953,43.403215 51.525,44.0232138 51.525,44.7880683 C51.525,45.5529229 52.12953,46.1729217 52.875,46.1729217 Z" id="Shape"></path>
            <path d="M26.6392019,30.20795 C26.1175843,29.59055 25.2221079,29.53775 24.6388653,30.09005 C20.0958913,34.3928 12.8333379,30.95405 12.8333379,24.5 C12.8333379,23.67155 12.1990952,23 11.416669,23 C10.6342427,23 10,23.67155 10,24.5 C10,29.70725 13.5993308,34.03925 18.3016801,34.85855 C17.7562625,36.67775 16.1463599,38 14.2500069,38 C13.4675806,38 12.8333379,38.67155 12.8333379,39.5 C12.8333379,40.32845 13.4675806,41 14.2500069,41 C17.7005874,41 20.5811004,38.3735 21.2061348,34.9097 C23.1762963,34.63685 25.0305743,33.7442 26.5278517,32.32595 C27.1109526,31.77365 27.1608194,30.82535 26.6392019,30.20795 Z" id="Path"></path>
            <path d="M9.75,53 C8.783475,53 8,53.6472771 8,54.4457831 C8,55.2442892 8.783475,55.8915663 9.75,55.8915663 C14.4113,55.8915663 18.5,59.4723373 18.5,63.5542169 C18.5,64.3527229 19.283475,65 20.25,65 C21.216525,65 22,64.3527229 22,63.5542169 C22,57.833253 16.3902,53 9.75,53 Z" id="Path"></path>
            <path d="M23.6607427,43 C19.1225354,43 15.2261003,45.4558517 13.1743581,49.0267143 C12.8096784,49.6616547 13.0356111,50.4681149 13.6789903,50.8279365 C14.3225034,51.1877581 15.1397182,50.9649673 15.5045319,50.3300269 C17.1029355,47.5476533 20.1358175,45.6428321 23.6607427,45.6428321 C24.4004145,45.6428321 25,45.0512341 25,44.321416 C25,43.591598 24.4004145,43 23.6607427,43 Z" id="Path"></path>
            <path d="M47.7500073,38 C45.8536606,38 44.2437633,36.67775 43.6983476,34.85855 C48.4006812,34.03925 52,29.70725 52,24.5 C52,23.67155 51.3656178,23 50.5833358,23 C49.8010538,23 49.1666715,23.67155 49.1666715,24.5 C49.1666715,28.6355 45.9890937,32 42.0833504,32 C40.3385867,32 38.6616813,31.3217 37.3611835,30.09005 C36.7782262,29.53775 35.8824694,29.5904 35.3608536,30.20795 C34.8390962,30.82535 34.8891045,31.77365 35.4722034,32.32595 C36.9694759,33.7442 38.8238893,34.63685 40.7939026,34.9097 C41.4189349,38.3735 44.2994383,41 47.7500073,41 C48.5322893,41 49.1666715,40.32845 49.1666715,39.5 C49.1666715,38.67155 48.5322893,38 47.7500073,38 Z" id="Path"></path>
            <path d="M52.5,53 C46.8084,53 42,57.833253 42,63.5542169 C42,64.3527229 42.6717,65 43.5,65 C44.3283,65 45,64.3527229 45,63.5542169 C45,59.4723373 48.5046,55.8915663 52.5,55.8915663 C53.3283,55.8915663 54,55.2442892 54,54.4457831 C54,53.6472771 53.3283,53 52.5,53 Z" id="Path"></path>
            <path d="M49.8257376,49.0267768 C47.779068,45.4644125 43.8879584,43 39.3392681,43 C38.5997243,43 38,43.5915911 38,44.3214008 C38,45.0512104 38.5997243,45.6428016 39.3392681,45.6428016 C42.8616772,45.6428016 45.8968606,47.5470722 47.4952771,50.3299423 C47.8604956,50.9656682 48.6783866,51.1873992 49.3208335,50.8279782 C49.9643519,50.4681608 50.1902864,49.6617099 49.8257376,49.0267768 Z" id="Path"></path>
        </g>
    </g>
</svg>