<?xml version="1.0" encoding="UTF-8"?>
<svg width="212px" height="18px" viewBox="0 0 212 18" version="1.1" xmlns="http://www.w3.org/2000/svg" xmlns:xlink="http://www.w3.org/1999/xlink">
    <!-- Generator: Sketch 64 (93537) - https://sketch.com -->
    <title>EH-imagotype-white</title>
    <desc>Created with Sketch.</desc>
    <defs>
        <linearGradient x1="50%" y1="0%" x2="50%" y2="100%" id="linearGradient-1">
            <stop stop-color="#F9BE00" offset="0%"></stop>
            <stop stop-color="#F60000" offset="100%"></stop>
        </linearGradient>
        <linearGradient x1="50%" y1="0%" x2="50%" y2="99.1422086%" id="linearGradient-2">
            <stop stop-color="#54E42B" offset="0%"></stop>
            <stop stop-color="#10A8B7" offset="100%"></stop>
        </linearGradient>
        <linearGradient x1="50%" y1="0%" x2="50%" y2="99.5117188%" id="linearGradient-3">
            <stop stop-color="#FF2198" offset="0%"></stop>
            <stop stop-color="#8F21A1" offset="100%"></stop>
        </linearGradient>
    </defs>
    <g id="Symbols" stroke="none" stroke-width="1" fill="none" fill-rule="evenodd">
        <g id="Navigation/Desktop/Homepage" transform="translate(-170.000000, -26.000000)" fill-rule="nonzero">
            <g id="EH-imagotype-white">
                <g transform="translate(170.000000, 26.000000)">
                    <path d="M60.8,15.9545455 L60.8,0.695454545 L69.44,0.695454545 L69.44,3.90681818 L64.36,3.90681818 L64.36,6.70909091 L68.92,6.70909091 L68.92,9.63409091 L64.36,9.63409091 L64.36,12.7431818 L69.6,12.7431818 L69.6,15.9545455 L60.8,15.9545455 Z M74.52,-1.13686838e-13 L74.52,15.9545455 L71.22,15.9545455 L71.22,-1.13686838e-13 L74.52,-1.13686838e-13 Z M88.28,14.4613636 C87.02,15.6272727 85.26,16.5272727 82.74,16.5272727 C78.38,16.5272727 75.76,13.8068182 75.76,10.0840909 C75.76,6.34090909 78.38,3.64090909 82.14,3.64090909 C85.68,3.64090909 88.36,6.36136364 88.36,10.1045455 L88.36,10.9840909 L79.28,10.9840909 C79.56,12.825 80.76,13.8068182 82.78,13.8068182 C84.42,13.8068182 85.54,13.2340909 86.42,12.4363636 L88.28,14.4613636 Z M82.1,6.40227273 C80.7,6.40227273 79.74,7.26136364 79.38,8.71363636 L84.82,8.71363636 C84.46,7.26136364 83.52,6.40227273 82.1,6.40227273 Z M92.82,9.08181818 L92.82,15.9545455 L89.5,15.9545455 L89.5,4.21363636 L92.68,4.21363636 L92.68,5.93181818 C93.2,5.03181818 94.32,3.90681818 96.06,3.90681818 C97.58,3.90681818 98.82,4.725 99.42,6.13636364 C99.88,5.21590909 101,3.90681818 102.98,3.90681818 C105.26,3.90681818 106.82,5.56363636 106.82,8.26363636 L106.82,15.9545455 L103.5,15.9545455 L103.5,9.28636364 C103.5,7.52727273 102.8,6.89318182 101.7,6.89318182 C100.74,6.89318182 99.82,7.58863636 99.82,9.20454545 L99.82,15.9545455 L96.5,15.9545455 L96.5,9.28636364 C96.5,7.52727273 95.76,6.89318182 94.68,6.89318182 C93.62,6.89318182 92.82,7.71136364 92.82,9.08181818 Z M120.5,14.4613636 C119.24,15.6272727 117.48,16.5272727 114.96,16.5272727 C110.6,16.5272727 107.98,13.8068182 107.98,10.0840909 C107.98,6.34090909 110.6,3.64090909 114.36,3.64090909 C117.9,3.64090909 120.58,6.36136364 120.58,10.1045455 L120.58,10.9840909 L111.5,10.9840909 C111.78,12.825 112.98,13.8068182 115,13.8068182 C116.64,13.8068182 117.76,13.2340909 118.64,12.4363636 L120.5,14.4613636 Z M114.32,6.40227273 C112.92,6.40227273 111.96,7.26136364 111.6,8.71363636 L117.04,8.71363636 C116.68,7.26136364 115.74,6.40227273 114.32,6.40227273 Z M125.02,9.08181818 L125.02,15.9545455 L121.72,15.9545455 L121.72,4.21363636 L124.86,4.21363636 L124.86,5.64545455 C125.56,4.78636364 126.86,3.90681818 128.62,3.90681818 C130.98,3.90681818 132.74,5.56363636 132.74,8.26363636 L132.74,15.9545455 L129.42,15.9545455 L129.42,9.28636364 C129.42,7.54772727 128.46,6.89318182 127.26,6.89318182 C126.22,6.89318182 125.02,7.71136364 125.02,9.08181818 Z M139.74,7.05681818 L138.4,7.05681818 L138.4,15.9545455 L135.1,15.9545455 L135.1,7.05681818 L133.76,7.05681818 L133.76,4.21363636 L135.1,4.21363636 L135.1,1.37045455 L138.4,0.756818182 L138.4,4.21363636 L139.74,4.21363636 L139.74,7.05681818 Z M144.34,15.9545455 L144.34,0.695454545 L147.9,0.695454545 L147.9,6.17727273 L152.86,6.17727273 L152.86,0.695454545 L156.42,0.695454545 L156.42,15.9545455 L152.86,15.9545455 L152.86,9.47045455 L147.9,9.47045455 L147.9,15.9545455 L144.34,15.9545455 Z M166,15.9545455 L166,14.5227273 C165.3,15.3818182 164,16.2613636 162.24,16.2613636 C159.88,16.2613636 158.14,14.6045455 158.14,11.9045455 L158.14,4.21363636 L161.44,4.21363636 L161.44,10.8818182 C161.44,12.6204545 162.4,13.275 163.6,13.275 C164.66,13.275 165.84,12.4568182 165.84,11.0863636 L165.84,4.21363636 L169.14,4.21363636 L169.14,15.9545455 L166,15.9545455 Z M174.06,9.08181818 L174.06,15.9545455 L170.74,15.9545455 L170.74,4.21363636 L173.92,4.21363636 L173.92,5.93181818 C174.44,5.03181818 175.56,3.90681818 177.3,3.90681818 C178.82,3.90681818 180.06,4.725 180.66,6.13636364 C181.12,5.21590909 182.24,3.90681818 184.22,3.90681818 C186.5,3.90681818 188.06,5.56363636 188.06,8.26363636 L188.06,15.9545455 L184.74,15.9545455 L184.74,9.28636364 C184.74,7.52727273 184.04,6.89318182 182.94,6.89318182 C181.98,6.89318182 181.06,7.58863636 181.06,9.20454545 L181.06,15.9545455 L177.74,15.9545455 L177.74,9.28636364 C177.74,7.52727273 177,6.89318182 175.92,6.89318182 C174.86,6.89318182 174.06,7.71136364 174.06,9.08181818 Z M196.24,15.9545455 L196.24,14.8704545 C195.52,15.7090909 194.42,16.3636364 192.9,16.3636364 C190.66,16.3636364 189.12,14.7681818 189.12,12.5795455 C189.12,10.4727273 190.64,8.775 193.18,8.775 C194.36,8.775 195.3,9.10227273 195.98,9.61363636 L195.98,9.06136364 C195.98,7.15909091 195.14,6.64772727 193.54,6.64772727 C192.82,6.64772727 192.08,6.77045455 190.7,7.03636364 L190.64,4.275 C192.04,3.98863636 192.88,3.90681818 194.14,3.90681818 C197.58,3.90681818 199.28,5.50227273 199.28,8.16136364 L199.28,15.9545455 L196.24,15.9545455 Z M194.26,14.4 C195.28,14.4 196,13.5613636 196,12.4977273 C196,11.5363636 195.32,10.7181818 194.26,10.7181818 C193.2,10.7181818 192.52,11.5363636 192.52,12.4977273 C192.52,13.5409091 193.2,14.4 194.26,14.4 Z M204.18,9.08181818 L204.18,15.9545455 L200.88,15.9545455 L200.88,4.21363636 L204.02,4.21363636 L204.02,5.64545455 C204.72,4.78636364 206.02,3.90681818 207.78,3.90681818 C210.14,3.90681818 211.9,5.56363636 211.9,8.26363636 L211.9,15.9545455 L208.58,15.9545455 L208.58,9.28636364 C208.58,7.54772727 207.62,6.89318182 206.42,6.89318182 C205.38,6.89318182 204.18,7.71136364 204.18,9.08181818 Z" id="ElementHuman" fill="#FFFFFF"></path>
                    <g id="isotype">
                        <path d="M37.2181818,9.01928571 L37.2181818,9.03857143 C42.9072727,13.3457143 48.5984848,13.3457143 54.2918182,9.03857143 C54.7372727,10.4335714 53.0954545,13.8728571 51.1927273,15.4285714 C48.4348946,17.6997931 44.5776169,18.0217448 41.4881818,16.2385714 C38.9427273,14.7535714 36.8809091,11.3014286 37.2181818,9.01928571 Z M46.1718182,2.13162821e-14 C46.8693452,0.0884847886 47.560267,0.223783976 48.24,0.405 C51.4755355,1.32757588 53.8557894,4.10885496 54.2918182,7.47642857 C54.3392769,7.6409507 54.2533089,7.81464108 54.0945455,7.875 C52.0211024,9.18732986 49.6798858,10.0072042 47.2472727,10.2728571 C45.0820218,10.5209739 42.8894209,10.2432757 40.8518182,9.46285714 C39.7318182,9.01928571 38.6690909,8.44071429 37.5745455,7.93285714 C37.3136364,7.81714286 37.25,7.66285714 37.2881818,7.36071429 C37.8823926,3.67541841 40.7324465,0.780775334 44.3772727,0.160714286 L45.4018182,0.0128571429 L46.1718182,2.13162821e-14 Z" id="Combined-Shape" fill="url(#linearGradient-1)"></path>
                        <path d="M16.5009091,12.0535714 C15.1723441,15.2854867 12.0487064,17.3918731 8.58454545,17.3918731 C5.12038446,17.3918731 1.99674677,15.2854867 0.668181818,12.0535714 C5.51591837,9.01051948 11.6531725,9.01051948 16.5009091,12.0535714 Z M8.90909091,-4.97379915e-14 C9.54545455,0.102857143 10.15,0.167142857 10.7545455,0.327857143 C15.237086,1.49493355 17.9850324,6.05507592 16.9527273,10.6135714 C16.9527273,10.71 16.8954545,10.8 16.8572727,10.935 C12.0424817,6.83627349 4.99685057,6.86621337 0.216363636,11.0057143 C0.101148156,10.2153064 0.0289185393,9.41911147 -5.86197757e-14,8.62071429 C0.0132488983,4.65943597 2.70861965,1.2219729 6.52272727,0.302142857 C7.07636364,0.154285714 7.64909091,0.0964285714 8.20909091,-4.97379915e-14 L8.90909091,-4.97379915e-14 Z" id="Combined-Shape" fill="url(#linearGradient-2)"></path>
                        <path d="M35.7145455,9.25071429 C35.4389179,13.8094026 31.6987779,17.3639734 27.1777273,17.3639734 C22.6566766,17.3639734 18.9165367,13.8094026 18.6409091,9.25071429 C24.3180314,9.82284402 30.0374232,9.82284402 35.7145455,9.25071429 Z M27.1777273,0.0761521614 C31.6884617,0.0761521614 35.4201487,3.622447 35.6954545,8.17071429 C30.0303084,7.61466735 24.3251462,7.61466735 18.66,8.17071429 C18.9353058,3.622447 22.6669928,0.0761521614 27.1777273,0.0761521614 Z" id="Combined-Shape" fill="url(#linearGradient-3)"></path>
                    </g>
                </g>
            </g>
        </g>
    </g>
</svg>