<?xml version="1.0" encoding="UTF-8"?>
<svg width="117px" height="38px" viewBox="0 0 117 38" version="1.1" xmlns="http://www.w3.org/2000/svg" xmlns:xlink="http://www.w3.org/1999/xlink">
    <!-- Generator: Sketch 64 (93537) - https://sketch.com -->
    <title>EH-isotype@1.5x</title>
    <desc>Created with Sketch.</desc>
    <defs>
        <linearGradient x1="50%" y1="0%" x2="50%" y2="100%" id="linearGradient-1">
            <stop stop-color="#F9BE00" offset="0%"></stop>
            <stop stop-color="#F60000" offset="100%"></stop>
        </linearGradient>
        <linearGradient x1="50%" y1="0%" x2="50%" y2="99.1422086%" id="linearGradient-2">
            <stop stop-color="#54E42B" offset="0%"></stop>
            <stop stop-color="#10A8B7" offset="100%"></stop>
        </linearGradient>
        <linearGradient x1="50%" y1="0%" x2="50%" y2="99.5117188%" id="linearGradient-3">
            <stop stop-color="#FF2198" offset="0%"></stop>
            <stop stop-color="#8F21A1" offset="100%"></stop>
        </linearGradient>
    </defs>
    <g id="EH-Website-Login-v2-Desktop" stroke="none" stroke-width="1" fill="none" fill-rule="evenodd">
        <g id="01-Login-Desktop-v1" transform="translate(-660.000000, -88.000000)">
            <g id="Body">
                <g id="Modal" transform="translate(320.000000, 42.000000)">
                    <g id="EH-isotype" transform="translate(340.000000, 46.000000)">
                        <g id="isotype">
                            <g fill-rule="nonzero">
                                <path d="M80.0542024,19.5417857 L80.0542024,19.5835714 C92.2911149,28.9157143 104.53259,28.9157143 116.778628,19.5835714 C117.736775,22.6060714 114.205317,30.0578571 110.112659,33.4285714 C104.180717,38.3495517 95.8839307,39.0471137 89.2387307,35.1835714 C83.7636021,31.9660714 79.3287479,24.4864286 80.0542024,19.5417857 Z M99.3129674,2.13162821e-14 C100.813309,0.191717042 102.299442,0.48486528 103.761509,0.8775 C110.720963,2.87641441 115.840755,8.90251909 116.778628,16.1989286 C116.880709,16.5553932 116.695796,16.9317223 116.354305,17.0625 C111.894447,19.9058814 106.858622,21.6822757 101.626209,22.2578571 C96.9688771,22.7954436 92.2527167,22.1937639 87.8699485,20.5028571 C85.4608919,19.5417857 83.1750257,18.2882143 80.8207204,17.1878571 C80.2595197,16.9371429 80.1226415,16.6028571 80.2047684,15.9482143 C81.4828822,7.96340656 87.6131868,1.69167989 95.4530017,0.348214286 L97.656741,0.0278571429 L99.3129674,2.13162821e-14 Z" id="Combined-Shape" fill="url(#linearGradient-1)"></path>
                                <path d="M35.4925214,26.1160714 C32.6348534,33.1185546 25.9160856,37.6823917 18.4648714,37.6823917 C11.0136571,37.6823917 4.29488927,33.1185546 1.43722127,26.1160714 C11.8644282,19.5227922 25.0653145,19.5227922 35.4925214,26.1160714 Z M19.1629503,-4.97379915e-14 C20.5317324,0.222857143 21.8320755,0.362142857 23.1324185,0.710357143 C32.7741096,3.2390227 38.6847867,13.1193312 36.4643568,22.9960714 C36.4643568,23.205 36.3411664,23.4 36.2590395,23.6925 C25.9026965,14.8119259 10.7479427,14.8767956 0.465385935,23.8457143 C0.217563958,22.1331639 0.0622021411,20.4080748 -5.68434189e-14,18.6782143 C0.0284976303,10.0954446 5.82608755,2.64760794 14.0300172,0.654642857 C15.2208576,0.334285714 16.4527616,0.208928571 17.6572899,-4.97379915e-14 L19.1629503,-4.97379915e-14 Z" id="Combined-Shape" fill="url(#linearGradient-2)"></path>
                                <path d="M76.8199657,20.0432143 C76.2271064,29.9203723 68.182277,37.6219423 58.457753,37.6219423 C48.733229,37.6219423 40.6883997,29.9203723 40.0955403,20.0432143 C52.306709,21.2828287 64.608797,21.2828287 76.8199657,20.0432143 Z M58.457753,0.16499635 C68.1600875,0.16499635 76.186735,7.84863517 76.7789022,17.7032143 C64.5934934,16.4984459 52.3220126,16.4984459 40.1366038,17.7032143 C40.728771,7.84863517 48.7554185,0.16499635 58.457753,0.16499635 Z" id="Combined-Shape" fill="url(#linearGradient-3)"></path>
                            </g>
                        </g>
                    </g>
                </g>
            </g>
        </g>
    </g>
</svg>