<?xml version="1.0" encoding="UTF-8"?>
<svg width="36px" height="37px" viewBox="0 0 36 37" version="1.1" xmlns="http://www.w3.org/2000/svg" xmlns:xlink="http://www.w3.org/1999/xlink">
    <!-- Generator: Sketch 64 (93537) - https://sketch.com -->
    <title>Youtube-hover@1.5x</title>
    <desc>Created with Sketch.</desc>
    <g id="EH-Website-Hover-v2-Desktop" stroke="none" stroke-width="1" fill="none" fill-rule="evenodd">
        <g id="01-Homepage-hover-v2" transform="translate(-1234.000000, -3721.000000)" fill="#13202F">
            <g id="HOVER-STATES" transform="translate(152.000000, 18.000000)">
                <g id="social" transform="translate(929.000000, 3703.000000)">
                    <g id="Youtube-hover" transform="translate(153.000000, 0.445455)">
                        <path d="M18,0 C27.941126,0 36,8.1321365 36,18.1636364 C36,28.1951362 27.941126,36.3272727 18,36.3272727 C8.05887401,36.3272727 0,28.1951362 0,18.1636364 C0,8.1321365 8.05887401,0 18,0 Z M18.0968838,11.5038118 L17.9031161,11.5038118 C17.1247451,11.5059749 11.8836682,11.534817 10.4986909,11.9193786 C9.67254545,12.1481378 9.02192727,12.8221748 8.80112727,13.678141 C8.45348364,15.0226362 8.40713115,17.6331603 8.40095082,18.3053979 L8.40095082,18.6273242 C8.40713115,19.2995411 8.45348364,21.9099938 8.80112727,23.2545863 C9.02192727,24.1105525 9.67254545,24.7845894 10.4986909,25.013461 C11.9211,25.4083094 17.4108633,25.4280518 17.9562836,25.429039 L18.0437164,25.429039 C18.5891365,25.4280518 24.0788945,25.4083094 25.5012,25.013461 C26.3273455,24.7845894 26.9779636,24.1105525 27.1987636,23.2545863 C27.6,21.7031334 27.6,18.4663636 27.6,18.4663636 C27.6,18.4663636 27.6,15.2294816 27.1987636,13.678141 C26.9779636,12.8221748 26.3273455,12.1481378 25.5012,11.9193786 C24.1163236,11.534817 18.8752543,11.5059749 18.0968838,11.5038118 Z" id="Combined-Shape"></path>
                        <polygon id="Fill-2" points="16.2 21.7963636 16.2 15.7418182 21 18.7692066"></polygon>
                    </g>
                </g>
            </g>
        </g>
    </g>
</svg>