<?xml version="1.0" encoding="UTF-8"?>
<svg width="36px" height="37px" viewBox="0 0 36 37" version="1.1" xmlns="http://www.w3.org/2000/svg" xmlns:xlink="http://www.w3.org/1999/xlink">
    <!-- Generator: Sketch 64 (93537) - https://sketch.com -->
    <title>LinkedIN-hover@1.5x</title>
    <desc>Created with Sketch.</desc>
    <g id="EH-Website-Hover-v2-Desktop" stroke="none" stroke-width="1" fill="none" fill-rule="evenodd">
        <g id="01-Homepage-hover-v2" transform="translate(-1132.000000, -3721.000000)" fill="#13202F">
            <g id="HOVER-STATES" transform="translate(152.000000, 18.000000)">
                <g id="social" transform="translate(929.000000, 3703.000000)">
                    <g id="LinkedIN-hover" transform="translate(51.000000, 0.445455)">
                        <path d="M18,0 C27.941126,0 36,8.1321365 36,18.1636364 C36,28.1951362 27.941126,36.3272727 18,36.3272727 C8.05887401,36.3272727 0,28.1951362 0,18.1636364 C0,8.1321365 8.05887401,0 18,0 Z M12.7204065,15.043917 L8.64121285,15.043917 L8.64121285,27.4116214 L12.7204065,27.4116214 L12.7204065,15.043917 Z M22.7348537,14.7534994 C20.5690702,14.7534994 19.5994125,15.9539142 19.0580074,16.7960269 L19.0580074,15.0442454 L14.978325,15.0442454 C15.0320907,16.2047668 14.978325,27.4119497 14.978325,27.4119497 L19.0580074,27.4119497 L19.0580074,20.5048032 C19.0580074,20.1351733 19.0844829,19.7664463 19.1923403,19.5018034 C19.4871561,18.7633644 20.1584137,17.9988223 21.2853771,17.9988223 C22.7620625,17.9988223 23.3523456,19.1329123 23.3523456,20.7948926 L23.3523456,27.4116214 L27.4313763,27.4116214 L27.4315392,20.3203577 C27.4315392,16.5215338 25.4191511,14.7534994 22.7348537,14.7534994 Z M10.707774,9.08181818 C9.31230757,9.08181818 8.4,10.0054415 8.4,11.2180871 C8.4,12.4056146 9.28534322,13.3558336 10.6548229,13.3558336 L10.6808911,13.3558336 C12.1032405,13.3558336 12.9890725,12.4056146 12.9890725,11.2180871 C12.9625969,10.0054415 12.1032405,9.08181818 10.707774,9.08181818 Z" id="Combined-Shape"></path>
                    </g>
                </g>
            </g>
        </g>
    </g>
</svg>